<svg xmlns="http://www.w3.org/2000/svg" width="32" height="32" viewBox="0 0 32 32"><defs><style>.a{fill:#5d5c5f;}</style></defs><path class="a" d="M76.149,65.6A10.007,10.007,0,0,0,76.23,64c0-.56-.082-1.04-.082-1.6l3.436-2.64a.735.735,0,0,0,.164-1.04L76.476,53.2a.8.8,0,0,0-.982-.32l-4.091,1.6a11.909,11.909,0,0,0-2.781-1.6l-.573-4.24A.877.877,0,0,0,67.23,48H60.684a.877.877,0,0,0-.818.64l-.654,4.24a13.856,13.856,0,0,0-2.782,1.6l-4.091-1.6a.766.766,0,0,0-.982.32l-3.273,5.52a.966.966,0,0,0,.164,1.04l3.518,2.64c0,.56-.082,1.04-.082,1.6s.082,1.04.082,1.6l-3.436,2.64a.735.735,0,0,0-.164,1.04l3.273,5.52a.8.8,0,0,0,.982.32l4.091-1.6a11.907,11.907,0,0,0,2.781,1.6l.654,4.24a.793.793,0,0,0,.818.64h6.546a.877.877,0,0,0,.818-.64l.655-4.24a13.848,13.848,0,0,0,2.782-1.6l4.091,1.6a.766.766,0,0,0,.982-.32l3.273-5.52a.965.965,0,0,0-.164-1.04Zm-12.192,4A5.6,5.6,0,1,1,69.684,64,5.63,5.63,0,0,1,63.957,69.6Z" transform="translate(-47.998 -48.001)"/></svg>