<svg xmlns="http://www.w3.org/2000/svg" width="32" height="32" viewBox="0 0 32 32"><defs><style>.a{fill:#2c47c8;}</style></defs><path class="a" d="M19.633,30.8v-8h-3.2v8a3.2,3.2,0,0,1-3.2,3.2h-4.8a3.2,3.2,0,0,1-3.2-3.2V18.657l-.48.48a1.6,1.6,0,1,1-2.24-2.272l14.4-14.4a1.6,1.6,0,0,1,2.24,0l14.4,14.4a1.6,1.6,0,0,1-2.24,2.272l-.48-.48V30.8a3.2,3.2,0,0,1-3.2,3.2h-4.8a3.2,3.2,0,0,1-3.2-3.2Zm8,0V15.456l-9.6-9.6-9.6,9.6V30.8h4.8v-8a3.21,3.21,0,0,1,3.2-3.2h3.2a3.2,3.2,0,0,1,3.2,3.2v8Z" transform="translate(-1.945 -2.004)"/></svg>